<svg width="70" height="70" viewBox="0 0 70 70" fill="none" xmlns="http://www.w3.org/2000/svg">
<path fill-rule="evenodd" clip-rule="evenodd" d="M58.3334 2.91669C63.166 2.91669 67.0834 6.83421 67.0834 11.6667V58.3334C67.0834 63.166 63.166 67.0834 58.3334 67.0834H11.6667C6.83427 67.0834 2.91675 63.166 2.91675 58.3334V11.6667C2.91675 6.83421 6.83427 2.91669 11.6667 2.91669H58.3334ZM58.3334 8.75002C59.9443 8.75002 61.2501 10.0559 61.2501 11.6667V58.3334C61.2501 59.9442 59.9443 61.25 58.3334 61.25H43.7501V40.8331H49.8057C51.061 40.8331 52.1755 40.0298 52.5727 38.8386L53.8648 34.9624C54.337 33.5458 53.2826 32.0831 51.7896 32.0831H43.7501V26.2498C43.7501 24.7915 45.2084 23.3331 46.6667 23.3331H52.5001C54.111 23.3331 55.4167 22.0273 55.4167 20.4165V18.4156C55.4167 17.4735 54.815 16.6288 53.9039 16.3884C50.0807 15.3795 46.6667 15.3795 46.6667 15.3795C39.3751 15.3795 35.0001 20.4165 35.0001 24.7915V32.0831H29.1667C27.5559 32.0831 26.2501 33.3889 26.2501 34.9997V37.9164C26.2501 39.5273 27.5559 40.8331 29.1667 40.8331H35.0001V61.25H11.6667C10.0559 61.25 8.75008 59.9442 8.75008 58.3334V11.6667C8.75008 10.0559 10.0559 8.75002 11.6667 8.75002H58.3334Z" fill="#FFAA00"/>
</svg>
