<svg width="70" height="70" viewBox="0 0 70 70" fill="none" xmlns="http://www.w3.org/2000/svg">
<path fill-rule="evenodd" clip-rule="evenodd" d="M35 52.5C44.665 52.5 52.5 44.665 52.5 35C52.5 25.335 44.665 17.5 35 17.5C25.335 17.5 17.5 25.335 17.5 35C17.5 44.665 25.335 52.5 35 52.5ZM35 46.6667C41.4432 46.6667 46.6667 41.4432 46.6667 35C46.6667 28.5567 41.4432 23.3333 35 23.3333C28.5567 23.3333 23.3333 28.5567 23.3333 35C23.3333 41.4432 28.5567 46.6667 35 46.6667Z" fill="#FFAA00"/>
<path d="M52.4999 14.5833C50.889 14.5833 49.5833 15.8892 49.5833 17.5C49.5833 19.1108 50.889 20.4166 52.4999 20.4166C54.1108 20.4166 55.4166 19.1108 55.4166 17.5C55.4166 15.8892 54.1108 14.5833 52.4999 14.5833Z" fill="#FFAA00"/>
<path fill-rule="evenodd" clip-rule="evenodd" d="M4.82413 12.4719C2.91675 16.2153 2.91675 21.1158 2.91675 30.9167V39.0834C2.91675 48.8842 2.91675 53.7848 4.82413 57.5281C6.50191 60.821 9.17906 63.4982 12.4719 65.1759C16.2154 67.0834 21.1158 67.0834 30.9167 67.0834H39.0834C48.8843 67.0834 53.7849 67.0834 57.5281 65.1759C60.821 63.4982 63.4982 60.821 65.1759 57.5281C67.0834 53.7848 67.0834 48.8842 67.0834 39.0834V30.9167C67.0834 21.1158 67.0834 16.2153 65.1759 12.4719C63.4982 9.179 60.821 6.50185 57.5281 4.82407C53.7849 2.91669 48.8843 2.91669 39.0834 2.91669H30.9167C21.1158 2.91669 16.2154 2.91669 12.4719 4.82407C9.17906 6.50185 6.50191 9.179 4.82413 12.4719ZM39.0834 8.75002H30.9167C25.92 8.75002 22.5233 8.75457 19.8978 8.96906C17.3404 9.17801 16.0325 9.55674 15.1202 10.0216C12.925 11.1401 11.1402 12.9249 10.0217 15.1201C9.5568 16.0325 9.17807 17.3403 8.96912 19.8978C8.75463 22.5232 8.75008 25.92 8.75008 30.9167V39.0834C8.75008 44.0802 8.75463 47.4766 8.96912 50.1022C9.17807 52.6599 9.5568 53.9677 10.0217 54.88C11.1402 57.0751 12.925 58.8598 15.1202 59.9783C16.0325 60.4433 17.3404 60.8221 19.8978 61.031C22.5233 61.2453 25.92 61.25 30.9167 61.25H39.0834C44.0802 61.25 47.4767 61.2453 50.1023 61.031C52.6599 60.8221 53.9677 60.4433 54.8801 59.9783C57.0752 58.8598 58.8599 57.0751 59.9784 54.88C60.4433 53.9677 60.8222 52.6599 61.031 50.1022C61.2454 47.4766 61.2501 44.0802 61.2501 39.0834V30.9167C61.2501 25.92 61.2454 22.5232 61.031 19.8978C60.8222 17.3403 60.4433 16.0325 59.9784 15.1201C58.8599 12.9249 57.0752 11.1401 54.8801 10.0216C53.9677 9.55674 52.6599 9.17801 50.1023 8.96906C47.4767 8.75457 44.0802 8.75002 39.0834 8.75002Z" fill="#FFAA00"/>
</svg>
