<svg width="70" height="70" viewBox="0 0 70 70" fill="none" xmlns="http://www.w3.org/2000/svg">
<path fill-rule="evenodd" clip-rule="evenodd" d="M65.625 61.25L52.5 50.3125V43.75L65.625 35V61.25ZM41.5625 30.6513C35.5075 30.6513 30.6009 25.7425 30.6009 19.6875C30.6009 13.6325 35.5075 8.72597 41.5625 8.72597C47.6175 8.72597 52.5241 13.6325 52.5241 19.6875C52.5241 25.7425 47.6175 30.6513 41.5625 30.6513ZM48.125 56.875C48.125 59.29 46.165 61.25 43.75 61.25H8.75C6.335 61.25 4.375 59.29 4.375 56.875V39.375C4.375 36.96 6.335 35 8.75 35H43.75C46.165 35 48.125 36.96 48.125 39.375V56.875ZM4.375 21.875C4.375 17.0428 8.29281 13.125 13.125 13.125C17.9572 13.125 21.875 17.0428 21.875 21.875C21.875 26.7072 17.9572 30.625 13.125 30.625C8.29281 30.625 4.375 26.7072 4.375 21.875ZM65.625 30.625L52.5 39.375C52.5 36.7194 51.2925 34.37 49.4244 32.7666C53.8694 30.0847 56.875 25.2569 56.875 19.6875C56.875 11.2306 50.0194 4.375 41.5625 4.375C33.1056 4.375 26.25 11.2306 26.25 19.6875C26.25 23.9794 28.0262 27.8447 30.8678 30.625H22.844C24.9375 28.2997 26.25 25.2525 26.25 21.875C26.25 14.6278 20.3722 8.75 13.125 8.75C5.87781 8.75 0 14.6278 0 21.875C0 25.8322 1.785 29.3343 4.55438 31.7428C1.85281 33.2303 0 36.0719 0 39.375V56.875C0 61.7072 3.91781 65.625 8.75 65.625H43.75C48.5822 65.625 52.5 61.7072 52.5 56.875V54.6875L65.625 65.625C68.04 65.625 70 63.665 70 61.25V35C70 32.585 68.04 30.625 65.625 30.625Z" fill="#FFAA00"/>
</svg>
